<svg width="16" height="16" viewBox="0 0 16 16" fill="none" xmlns="http://www.w3.org/2000/svg">
<path fill-rule="evenodd" clip-rule="evenodd" d="M1.52588e-05 5.954C1.52588e-05 2.665 2.68301 0 5.99102 0C9.30202 0 11.984 2.665 11.984 5.954C11.984 9.241 9.30102 11.906 5.99102 11.906C2.68301 11.906 1.52588e-05 9.241 1.52588e-05 5.954ZM11.066 6.019C11.0652 5.35128 10.9329 4.69027 10.6765 4.07373C10.4201 3.4572 10.0448 2.89723 9.57188 2.42582C9.09899 1.95442 8.53784 1.58083 7.9205 1.3264C7.30316 1.07197 6.64173 0.941686 5.97402 0.943C5.30656 0.941949 4.64545 1.07244 4.02845 1.32701C3.41145 1.58158 2.85067 1.95525 2.37815 2.42665C1.90564 2.89806 1.53065 3.45795 1.27462 4.07435C1.01859 4.69074 0.886539 5.35155 0.886015 6.019C0.886671 6.68637 1.01882 7.34707 1.27491 7.96335C1.531 8.57962 1.906 9.1394 2.37851 9.6107C2.85101 10.082 3.41175 10.4556 4.02868 10.7101C4.64561 10.9646 5.30665 11.0951 5.97402 11.094C8.78702 11.094 11.066 8.822 11.066 6.019Z" fill="#FF784F"/>
<path fill-rule="evenodd" clip-rule="evenodd" d="M14.178 15.964L16 14.142L11.963 10.104C11.963 10.104 11.867 10.869 11.383 11.351C10.901 11.835 10.141 11.927 10.141 11.927L14.178 15.964Z" fill="#FF784F"/>
<path fill-rule="evenodd" clip-rule="evenodd" d="M2.602 5.07301C2.602 5.64501 2.162 5.42901 2.162 4.63401C2.162 3.26401 3.271 2.15401 4.641 2.15401C5.438 2.15401 5.653 2.59301 5.08 2.59301C4.75445 2.59314 4.43212 2.65739 4.1314 2.78209C3.83068 2.90679 3.55748 3.08951 3.32737 3.3198C3.09727 3.55009 2.91478 3.82344 2.79032 4.12426C2.66586 4.42508 2.60187 4.74746 2.602 5.07301Z" fill="#FF784F"/>
</svg>
